# xmcd CD database file
#
# Track frame offsets:
#	150
#	15836
#	28781
#	45121
#	62758
#	86716
#	104165
#	123681
#	139239
#	151506
#	173067
#
# Disc length: 2572 seconds
#
# Revision: 0
# Processed by: cddbd v1.5.2PL0 Copyright (c) Steve Scherf et al.
# Submitted via: CDex 1.51
#
DISCID=850a0a0b
DTITLE=Sugarland - Enjoy the ride
DYEAR=2006
DGENRE=Country
TTITLE0=Settlin'
TTITLE1=County line
TTITLE2=Want to
TTITLE3=Everyday America
TTITLE4=Happy ending
TTITLE5=These are the days
TTITLE6=One blue sky
TTITLE7=April showers
TTITLE8=Mean girls
TTITLE9=Stay
TTITLE10=Sugarland
EXTD=YEAR: 2006
EXTT0=
EXTT1=
EXTT2=
EXTT3=
EXTT4=
EXTT5=
EXTT6=
EXTT7=
EXTT8=
EXTT9=
EXTT10=
PLAYORDER=
